<svg width="1314" height="1314" viewBox="0 0 1314 1314" fill="none" xmlns="http://www.w3.org/2000/svg">
<path d="M1040.25 0H273.75C122.585 0 0 122.585 0 273.75V1040.25C0 1191.41 122.585 1314 273.75 1314H1040.25C1191.47 1314 1314 1191.41 1314 1040.25V273.75C1314 122.585 1191.47 0 1040.25 0ZM438 1040.25H273.75V438H438V1040.25ZM355.875 368.577C302.986 368.577 260.062 325.324 260.062 271.998C260.062 218.671 302.986 175.419 355.875 175.419C408.764 175.419 451.688 218.671 451.688 271.998C451.688 325.324 408.818 368.577 355.875 368.577ZM1095 1040.25H930.75V733.431C930.75 549.033 711.75 562.994 711.75 733.431V1040.25H547.5V438H711.75V534.634C788.181 393.05 1095 382.593 1095 670.195V1040.25Z" fill="white"/>
</svg>
