<svg width="203" height="203" viewBox="0 0 203 203" fill="none" xmlns="http://www.w3.org/2000/svg">
<path fill-rule="evenodd" clip-rule="evenodd" d="M25 0C11.1929 0 0 11.1929 0 25V178C0 191.807 11.1929 203 25 203H178C191.807 203 203 191.807 203 178V25C203 11.1929 191.807 0 178 0H25ZM27.0952 60.4286H20.0476V67.4762H27.0952H34.1429V74.5238H41.1905H48.2381H55.2857V81.5714V88.619V95.6667V102.714V109.762V116.81V123.857H62.3333V116.81V109.762V102.714V95.6667V88.619V81.5714V74.5238H69.381H76.4286V81.5714V88.619V95.6667V102.714V109.762V116.81V123.857V130.905H69.381H62.3333H55.2857H48.2381H41.1905H34.1429H27.0952V137.952H20.0476V145H27.0952V137.952H34.1429H41.1905V145H48.2381H55.2857H62.3333H69.381V137.952H76.4286V130.905H83.4762V123.857H90.5238V116.81V109.762V102.714V95.6667V88.619V81.5714V74.5238V67.4762H83.4762V60.4286H76.4286H69.381H62.3333H55.2857H48.2381H41.1905H34.1429H27.0952ZM41.1905 81.5714H34.1429V88.619H27.0952H20.0476V95.6667H27.0952H34.1429V102.714H27.0952H20.0476V109.762H27.0952H34.1429V116.81V123.857H41.1905H48.2381V116.81V109.762V102.714V95.6667V88.619V81.5714H41.1905ZM125.707 60.4286H118.659V67.4762H111.612V74.5238V81.5714H104.564V88.619V95.6667H111.612V102.714H118.659V109.762H125.707H132.754V116.81H139.802H146.85V123.857H153.897H160.945H167.993V130.905H160.945H153.897H146.85H139.802V123.857H132.754H125.707H118.659V130.905H111.612H104.564V137.952H97.5164V145H104.564V137.952H111.612H118.659H125.707V145H132.754H139.802H146.85V137.952H153.897H160.945H167.993H175.04V130.905V123.857H182.088V116.81V109.762V102.714H175.04V95.6667H167.993H160.945V88.619H153.897H146.85H139.802V81.5714H132.754H125.707V74.5238H118.659V67.4762H125.707H132.754H139.802H146.85V74.5238H153.897H160.945V81.5714H167.993V74.5238H175.04V67.4762H182.088V60.4286H175.04V67.4762H167.993H160.945V60.4286H153.897H146.85H139.802H132.754H125.707ZM167.993 116.81H175.04V123.857H167.993V116.81ZM160.945 109.762H167.993V116.81H160.945V109.762ZM139.802 102.714H146.85H153.897H160.945V109.762H153.897H146.85H139.802V102.714ZM125.707 95.6667H132.754H139.802V102.714H132.754H125.707V95.6667ZM118.659 88.619H125.707V95.6667H118.659V88.619ZM118.659 88.619V81.5714H111.612V88.619H118.659Z" fill="white"/>
</svg>
